<svg width="55" height="55" viewBox="0 0 55 55" fill="none" xmlns="http://www.w3.org/2000/svg">
<path fill-rule="evenodd" clip-rule="evenodd" d="M27.5 2.2915C13.5781 2.2915 2.29167 13.578 2.29167 27.4998C2.29167 41.4217 13.5781 52.7082 27.5 52.7082C41.4219 52.7082 52.7083 41.4217 52.7083 27.4998C52.7083 13.578 41.4219 2.2915 27.5 2.2915ZM38.4267 23.2373C38.6279 23.0074 38.781 22.7394 38.8772 22.4494C38.9733 22.1593 39.0105 21.853 38.9865 21.5483C38.9625 21.2437 38.8778 20.947 38.7374 20.6755C38.597 20.4041 38.4037 20.1635 38.169 19.9679C37.9342 19.7723 37.6627 19.6256 37.3704 19.5364C37.0782 19.4473 36.771 19.4175 36.467 19.4488C36.1631 19.4801 35.8684 19.5719 35.6005 19.7188C35.3325 19.8657 35.0966 20.0646 34.9067 20.304L25.0525 32.1267L19.9535 27.0255C19.5213 26.608 18.9425 26.377 18.3416 26.3823C17.7407 26.3875 17.1659 26.6285 16.741 27.0534C16.3162 27.4783 16.0751 28.0531 16.0699 28.6539C16.0647 29.2548 16.2957 29.8337 16.7131 30.2659L23.5881 37.1409C23.8133 37.3659 24.0829 37.5416 24.3797 37.6566C24.6765 37.7717 24.9941 37.8237 25.3121 37.8092C25.6301 37.7948 25.9416 37.7143 26.2268 37.5727C26.5119 37.4312 26.7645 37.2319 26.9683 36.9873L38.4267 23.2373Z" fill="#0099C2"/>
</svg>
