<svg width="40" height="40" viewBox="0 0 40 40" fill="none" xmlns="http://www.w3.org/2000/svg">
<path d="M35.4718 13.793L25.5538 12.3516L21.1203 3.3633C20.9992 3.1172 20.7999 2.91798 20.5538 2.79689C19.9367 2.4922 19.1867 2.74611 18.8781 3.3633L14.4445 12.3516L4.5265 13.793C4.25306 13.832 4.00306 13.961 3.81166 14.1563C3.58026 14.3941 3.45275 14.7141 3.45714 15.0459C3.46154 15.3777 3.59748 15.6942 3.8351 15.9258L11.0109 22.9219L9.31556 32.8008C9.27581 33.0306 9.30124 33.2669 9.38897 33.483C9.4767 33.6991 9.62323 33.8863 9.81193 34.0234C10.0006 34.1604 10.224 34.2418 10.4566 34.2584C10.6892 34.275 10.9218 34.2261 11.1281 34.1172L19.9992 29.4531L28.8703 34.1172C29.1124 34.2461 29.3937 34.2891 29.6632 34.2422C30.3429 34.125 30.7999 33.4805 30.6828 32.8008L28.9874 22.9219L36.1632 15.9258C36.3585 15.7344 36.4874 15.4844 36.5265 15.211C36.632 14.5274 36.1554 13.8945 35.4718 13.793V13.793Z" fill="black"/>
</svg>
