<svg width="15" height="15" viewBox="0 0 15 15" fill="none" xmlns="http://www.w3.org/2000/svg">
<path d="M13.7169 5.7381C13.6776 5.6224 13.6053 5.52072 13.5089 5.44564C13.4125 5.37056 13.2962 5.32535 13.1744 5.3156L9.61127 5.03248L8.06939 1.61935C8.02029 1.50942 7.94042 1.41606 7.83942 1.35052C7.73842 1.28498 7.62062 1.25007 7.50022 1.25C7.37982 1.24993 7.26198 1.28471 7.16091 1.35014C7.05984 1.41557 6.97987 1.50885 6.93064 1.61873L5.38877 5.03248L1.82564 5.3156C1.70593 5.32509 1.59148 5.36886 1.49599 5.44169C1.4005 5.51451 1.32801 5.61331 1.2872 5.72625C1.24639 5.83919 1.23898 5.9615 1.26586 6.07854C1.29274 6.19559 1.35277 6.30241 1.43877 6.38623L4.07189 8.9531L3.14064 12.9856C3.11236 13.1077 3.12143 13.2354 3.16665 13.3523C3.21188 13.4691 3.29118 13.5697 3.39427 13.6409C3.49735 13.7121 3.61947 13.7507 3.74476 13.7516C3.87005 13.7526 3.99273 13.7159 4.09689 13.6462L7.50002 11.3775L10.9031 13.6462C11.0096 13.7169 11.1352 13.7533 11.2629 13.7505C11.3907 13.7477 11.5145 13.7058 11.6178 13.6306C11.721 13.5553 11.7988 13.4502 11.8405 13.3294C11.8822 13.2086 11.886 13.078 11.8513 12.955L10.7081 8.95498L13.5431 6.40373C13.7288 6.23623 13.7969 5.97498 13.7169 5.7381Z" fill="#838383"/>
</svg>
