<svg width="27" height="27" viewBox="0 0 27 27" fill="none" xmlns="http://www.w3.org/2000/svg">
<path d="M23.625 7.59375H18.5625V9.28125H23.625V12.6562H20.25V14.3438H23.625V17.7188H18.5625V19.4062H23.625C24.0723 19.4056 24.5012 19.2276 24.8175 18.9113C25.1338 18.5949 25.3118 18.1661 25.3125 17.7188V9.28125C25.3121 8.83383 25.1341 8.40487 24.8177 8.0885C24.5014 7.77213 24.0724 7.5942 23.625 7.59375V7.59375ZM16.875 19.4062H10.125V14.3438C10.1254 13.8963 10.3034 13.4674 10.6198 13.151C10.9361 12.8346 11.3651 12.6567 11.8125 12.6562H15.1875V9.28125H10.125V7.59375H15.1875C15.6349 7.5942 16.0639 7.77213 16.3802 8.0885C16.6966 8.40487 16.8746 8.83383 16.875 9.28125V12.6562C16.8746 13.1037 16.6966 13.5326 16.3802 13.849C16.0639 14.1654 15.6349 14.3433 15.1875 14.3438H11.8125V17.7188H16.875V19.4062ZM2.10938 18.9844V18.1406H4.64062V8.85938H2.10938V8.01562H5.48438V18.1406H8.01562V18.9844H2.10938Z" fill="#485068"/>
<path d="M5.0625 8.4375V18.5625V8.4375ZM5.90625 7.59375H1.6875V9.28125H4.21875V17.7188H1.6875V19.4062H8.4375V17.7188H5.90625V7.59375Z" fill="#485068"/>
</svg>
