<svg width="48" height="48" viewBox="0 0 48 48" fill="none" xmlns="http://www.w3.org/2000/svg">
<path d="M11.001 30C12.7504 29.9948 14.4335 29.3307 15.715 28.14L28.235 35.294C27.8156 36.9332 28.0005 38.6687 28.756 40.1827C29.5115 41.6967 30.787 42.8879 32.349 43.5384C33.911 44.1888 35.655 44.2549 37.2618 43.7246C38.8686 43.1943 40.2306 42.103 41.0985 40.6505C41.9665 39.198 42.2822 37.4816 41.988 35.8153C41.6938 34.149 40.8094 32.6445 39.4965 31.577C38.1837 30.5096 36.5303 29.9507 34.8391 30.0027C33.1478 30.0546 31.5319 30.714 30.287 31.86L17.767 24.706C17.899 24.206 17.971 23.688 17.983 23.17L30.283 16.14C31.4674 17.2175 32.9863 17.855 34.5849 17.9454C36.1836 18.0358 37.7647 17.5737 39.063 16.6366C40.3613 15.6995 41.2978 14.3444 41.7155 12.7986C42.1331 11.2529 42.0064 9.6105 41.3567 8.14706C40.707 6.68361 39.5737 5.48814 38.1471 4.76118C36.7204 4.03423 35.0872 3.82003 33.5213 4.15451C31.9555 4.489 30.5523 5.35182 29.5471 6.59824C28.542 7.84465 27.9961 9.39881 28.001 11C28.009 11.576 28.087 12.15 28.235 12.706L16.867 19.2C16.2078 18.1801 15.2946 17.3493 14.2171 16.7891C13.1396 16.229 11.9349 15.9588 10.7214 16.0051C9.50789 16.0514 8.3273 16.4126 7.29562 17.0532C6.26394 17.6938 5.41668 18.5918 4.83706 19.659C4.25744 20.7261 3.96542 21.9257 3.98968 23.1398C4.01394 24.354 4.35365 25.541 4.97544 26.5841C5.59722 27.6272 6.47969 28.4907 7.53613 29.0896C8.59258 29.6885 9.78666 30.0022 11.001 30V30Z" fill="#888888"/>
</svg>
