<svg width="40" height="40" viewBox="0 0 40 40" fill="none" xmlns="http://www.w3.org/2000/svg">
<path d="M10.3125 10.9238C11.2691 10.9238 12.2043 10.6401 12.9997 10.1086C13.7951 9.57711 14.4151 8.82169 14.7812 7.93787C15.1473 7.05405 15.2431 6.08151 15.0564 5.14325C14.8698 4.20499 14.4091 3.34314 13.7327 2.66669C13.0562 1.99024 12.1944 1.52957 11.2561 1.34294C10.3179 1.15631 9.34533 1.2521 8.46151 1.61819C7.57768 1.98428 6.82227 2.60423 6.29079 3.39965C5.7593 4.19507 5.47562 5.13023 5.47562 6.08688C5.47705 7.36926 5.98711 8.59871 6.89389 9.50549C7.80067 10.4123 9.03012 10.9223 10.3125 10.9238V10.9238ZM10.3125 3.75C10.7747 3.75 11.2265 3.88706 11.6108 4.14384C11.9951 4.40062 12.2946 4.76559 12.4715 5.19259C12.6484 5.6196 12.6946 6.08947 12.6045 6.54278C12.5143 6.99609 12.2917 7.41248 11.9649 7.7393C11.6381 8.06612 11.2217 8.28868 10.7684 8.37885C10.3151 8.46902 9.84523 8.42274 9.41822 8.24587C8.99121 8.069 8.62624 7.76947 8.36946 7.38518C8.11268 7.00088 7.97562 6.54907 7.97562 6.08688C7.97635 5.46732 8.22279 4.87335 8.66088 4.43526C9.09897 3.99716 9.69294 3.75073 10.3125 3.75V3.75ZM13.75 11.875H6.875C5.88077 11.8761 4.92758 12.2715 4.22456 12.9746C3.52154 13.6776 3.1261 14.6308 3.125 15.625V27.5H5.625V38.75H15V27.5H17.5V15.625C17.4989 14.6308 17.1035 13.6776 16.4004 12.9746C15.6974 12.2715 14.7442 11.8761 13.75 11.875ZM15 25H12.5V36.25H8.125V25H5.625V15.625C5.62539 15.2936 5.75722 14.9759 5.99155 14.7416C6.22589 14.5072 6.5436 14.3754 6.875 14.375H13.75C14.0814 14.3754 14.3991 14.5072 14.6334 14.7416C14.8678 14.9759 14.9996 15.2936 15 15.625V25ZM28.9131 10.9238C29.8698 10.9238 30.8049 10.6401 31.6003 10.1086C32.3958 9.57711 33.0157 8.82169 33.3818 7.93787C33.7479 7.05405 33.8437 6.08151 33.6571 5.14325C33.4704 4.20499 33.0098 3.34314 32.3333 2.66669C31.6569 1.99024 30.795 1.52957 29.8568 1.34294C28.9185 1.15631 27.946 1.2521 27.0621 1.61819C26.1783 1.98428 25.4229 2.60423 24.8914 3.39965C24.3599 4.19507 24.0762 5.13023 24.0762 6.08688C24.0777 7.36926 24.5877 8.59871 25.4945 9.50549C26.4013 10.4123 27.6307 10.9223 28.9131 10.9238V10.9238ZM28.9131 3.75C29.3753 3.75 29.8271 3.88706 30.2114 4.14384C30.5957 4.40062 30.8952 4.76559 31.0721 5.19259C31.249 5.6196 31.2953 6.08947 31.2051 6.54278C31.1149 6.99609 30.8924 7.41248 30.5655 7.7393C30.2387 8.06612 29.8223 8.28868 29.369 8.37885C28.9157 8.46902 28.4458 8.42274 28.0188 8.24587C27.5918 8.069 27.2269 7.76947 26.9701 7.38518C26.7133 7.00088 26.5762 6.54907 26.5762 6.08688C26.577 5.46732 26.8234 4.87335 27.2615 4.43526C27.6996 3.99716 28.2936 3.75073 28.9131 3.75V3.75ZM33.2624 15.1058C32.9374 14.1714 32.3323 13.3599 31.5295 12.7818C30.7266 12.2037 29.7651 11.8872 28.7759 11.8753C27.7866 11.8634 26.8178 12.1568 26.0013 12.7154C25.1848 13.274 24.5603 14.0707 24.213 14.997L19.375 27.8984V31.25H24.375V38.75H32.5V31.25H37.5V27.2891L33.2624 15.1058ZM35 28.75H30V36.25H26.875V28.75H21.875V28.3516L26.5538 15.875C26.7207 15.43 27.0207 15.0473 27.4129 14.7789C27.8052 14.5105 28.2706 14.3696 28.7458 14.3753C29.221 14.381 29.6829 14.5331 30.0686 14.8108C30.4543 15.0885 30.745 15.4784 30.9011 15.9273L35 27.7109V28.75Z" fill="black"/>
</svg>
