<svg width="44" height="44" viewBox="0 0 44 44" fill="none" xmlns="http://www.w3.org/2000/svg">
<path fill-rule="evenodd" clip-rule="evenodd" d="M22 5.5C35.7787 5.5 43.4948 20.5333 43.8622 21.2667C44.0459 21.6333 44.0459 22.3667 43.8622 22.7333C43.4948 23.4667 35.7787 38.5 22 38.5C9.03075 38.5 1.43274 25.1811 0.278368 23.1576C0.20632 23.0313 0.159373 22.949 0.137787 22.9167C-0.045929 22.3667 -0.045929 21.8167 0.137787 21.2667C0.505219 20.5333 8.2213 5.5 22 5.5ZM3.81211 22C5.64927 24.9333 12.0793 34.8333 22 34.8333C31.9207 34.8333 38.3507 24.9333 40.1879 22C38.3507 19.0667 31.9207 9.16667 22 9.16667C12.0793 9.16667 5.46555 19.0667 3.81211 22ZM22 14.6667C17.9582 14.6667 14.6514 17.9667 14.6514 22C14.6514 26.0333 17.9582 29.3333 22 29.3333C26.0418 29.3333 29.3486 26.0333 29.3486 22C29.3486 17.9667 26.0418 14.6667 22 14.6667ZM18.3257 22C18.3257 24.0167 19.9791 25.6667 22 25.6667C24.0209 25.6667 25.6743 24.0167 25.6743 22C25.6743 19.9833 24.0209 18.3333 22 18.3333C19.9791 18.3333 18.3257 19.9833 18.3257 22Z" fill="black"/>
<mask id="mask0_1723_27462" style="mask-type:alpha" maskUnits="userSpaceOnUse" x="0" y="5" width="44" height="34">
<path fill-rule="evenodd" clip-rule="evenodd" d="M22 5.5C35.7787 5.5 43.4948 20.5333 43.8622 21.2667C44.0459 21.6333 44.0459 22.3667 43.8622 22.7333C43.4948 23.4667 35.7787 38.5 22 38.5C9.03075 38.5 1.43274 25.1811 0.278368 23.1576C0.20632 23.0313 0.159373 22.949 0.137787 22.9167C-0.045929 22.3667 -0.045929 21.8167 0.137787 21.2667C0.505219 20.5333 8.2213 5.5 22 5.5ZM3.81211 22C5.64927 24.9333 12.0793 34.8333 22 34.8333C31.9207 34.8333 38.3507 24.9333 40.1879 22C38.3507 19.0667 31.9207 9.16667 22 9.16667C12.0793 9.16667 5.46555 19.0667 3.81211 22ZM22 14.6667C17.9582 14.6667 14.6514 17.9667 14.6514 22C14.6514 26.0333 17.9582 29.3333 22 29.3333C26.0418 29.3333 29.3486 26.0333 29.3486 22C29.3486 17.9667 26.0418 14.6667 22 14.6667ZM18.3257 22C18.3257 24.0167 19.9791 25.6667 22 25.6667C24.0209 25.6667 25.6743 24.0167 25.6743 22C25.6743 19.9833 24.0209 18.3333 22 18.3333C19.9791 18.3333 18.3257 19.9833 18.3257 22Z" fill="white"/>
</mask>
<g mask="url(#mask0_1723_27462)">
<rect width="44" height="44" fill="#0099C2"/>
</g>
</svg>
