<svg width="40" height="40" viewBox="0 0 40 40" fill="none" xmlns="http://www.w3.org/2000/svg">
<path d="M23.75 25.0002C23.5028 25.0002 23.2611 25.0735 23.0555 25.2109C22.85 25.3482 22.6898 25.5435 22.5952 25.7719C22.5005 26.0003 22.4758 26.2516 22.524 26.4941C22.5722 26.7366 22.6913 26.9593 22.8661 27.1341C23.0409 27.3089 23.2637 27.428 23.5061 27.4762C23.7486 27.5244 23.9999 27.4997 24.2284 27.4051C24.4568 27.3105 24.652 27.1503 24.7893 26.9447C24.9267 26.7391 25 26.4975 25 26.2502C25 25.9187 24.8683 25.6008 24.6339 25.3664C24.3995 25.1319 24.0815 25.0002 23.75 25.0002ZM26.25 17.5002C26.0028 17.5002 25.7611 17.5735 25.5555 17.7109C25.35 17.8483 25.1898 18.0435 25.0952 18.2719C25.0005 18.5003 24.9758 18.7516 25.024 18.9941C25.0722 19.2366 25.1913 19.4593 25.3661 19.6341C25.5409 19.8089 25.7637 19.928 26.0061 19.9762C26.2486 20.0245 26.4999 19.9997 26.7284 19.9051C26.9568 19.8105 27.152 19.6503 27.2893 19.4447C27.4267 19.2391 27.5 18.9975 27.5 18.7502C27.5 18.4187 27.3683 18.1008 27.1339 17.8664C26.8995 17.6319 26.5815 17.5002 26.25 17.5002ZM28.75 22.5002C28.9972 22.5002 29.2389 22.4269 29.4445 22.2896C29.65 22.1522 29.8102 21.957 29.9048 21.7286C29.9995 21.5002 30.0242 21.2488 29.976 21.0064C29.9278 20.7639 29.8087 20.5412 29.6339 20.3664C29.4591 20.1915 29.2363 20.0725 28.9939 20.0243C28.7514 19.976 28.5001 20.0008 28.2716 20.0954C28.0432 20.19 27.848 20.3502 27.7107 20.5558C27.5733 20.7613 27.5 21.003 27.5 21.2502C27.5 21.5818 27.6317 21.8997 27.8661 22.1341C28.1005 22.3685 28.4185 22.5002 28.75 22.5002ZM26.25 25.0002C26.4972 25.0002 26.7389 24.9269 26.9445 24.7896C27.15 24.6522 27.3102 24.457 27.4048 24.2286C27.4995 24.0002 27.5242 23.7488 27.476 23.5064C27.4278 23.2639 27.3087 23.0412 27.1339 22.8664C26.9591 22.6915 26.7363 22.5725 26.4939 22.5243C26.2514 22.476 26.0001 22.5008 25.7716 22.5954C25.5432 22.69 25.348 22.8502 25.2107 23.0558C25.0733 23.2613 25 23.503 25 23.7502C25 24.0818 25.1317 24.3997 25.3661 24.6341C25.6005 24.8685 25.9185 25.0002 26.25 25.0002ZM23.75 20.0002C23.5028 20.0002 23.2611 20.0735 23.0555 20.2109C22.85 20.3483 22.6898 20.5435 22.5952 20.7719C22.5005 21.0003 22.4758 21.2516 22.524 21.4941C22.5722 21.7366 22.6913 21.9593 22.8661 22.1341C23.0409 22.3089 23.2637 22.428 23.5061 22.4762C23.7486 22.5245 23.9999 22.4997 24.2284 22.4051C24.4568 22.3105 24.652 22.1503 24.7893 21.9447C24.9267 21.7391 25 21.4975 25 21.2502C25 20.9187 24.8683 20.6008 24.6339 20.3664C24.3995 20.1319 24.0815 20.0002 23.75 20.0002ZM33.75 17.5002C33.9972 17.5002 34.2389 17.4269 34.4445 17.2896C34.65 17.1522 34.8102 16.957 34.9048 16.7286C34.9995 16.5002 35.0242 16.2489 34.976 16.0064C34.9278 15.7639 34.8087 15.5412 34.6339 15.3664C34.4591 15.1915 34.2363 15.0725 33.9939 15.0243C33.7514 14.976 33.5001 15.0008 33.2716 15.0954C33.0432 15.19 32.848 15.3502 32.7107 15.5558C32.5733 15.7613 32.5 16.003 32.5 16.2502C32.5 16.5818 32.6317 16.8997 32.8661 17.1341C33.1005 17.3685 33.4185 17.5002 33.75 17.5002ZM30 18.7502C30 18.9975 30.0733 19.2391 30.2107 19.4447C30.348 19.6503 30.5432 19.8105 30.7716 19.9051C31.0001 19.9997 31.2514 20.0245 31.4939 19.9762C31.7363 19.928 31.9591 19.8089 32.1339 19.6341C32.3087 19.4593 32.4278 19.2366 32.476 18.9941C32.5242 18.7516 32.4995 18.5003 32.4048 18.2719C32.3102 18.0435 32.15 17.8483 31.9445 17.7109C31.7389 17.5735 31.4972 17.5002 31.25 17.5002C30.9185 17.5002 30.6005 17.6319 30.3661 17.8664C30.1317 18.1008 30 18.4187 30 18.7502ZM28.75 15.0002C28.5028 15.0002 28.2611 15.0735 28.0555 15.2109C27.85 15.3483 27.6898 15.5435 27.5952 15.7719C27.5005 16.0003 27.4758 16.2516 27.524 16.4941C27.5722 16.7366 27.6913 16.9593 27.8661 17.1341C28.0409 17.3089 28.2637 17.428 28.5061 17.4762C28.7486 17.5245 28.9999 17.4997 29.2284 17.4051C29.4568 17.3105 29.652 17.1503 29.7893 16.9447C29.9267 16.7391 30 16.4975 30 16.2502C30 15.9187 29.8683 15.6008 29.6339 15.3664C29.3995 15.1319 29.0815 15.0002 28.75 15.0002ZM36.25 17.5002C36.0028 17.5002 35.7611 17.5735 35.5555 17.7109C35.35 17.8483 35.1898 18.0435 35.0952 18.2719C35.0005 18.5003 34.9758 18.7516 35.024 18.9941C35.0722 19.2366 35.1913 19.4593 35.3661 19.6341C35.5409 19.8089 35.7637 19.928 36.0061 19.9762C36.2486 20.0245 36.4999 19.9997 36.7284 19.9051C36.9568 19.8105 37.152 19.6503 37.2893 19.4447C37.4267 19.2391 37.5 18.9975 37.5 18.7502C37.5 18.4187 37.3683 18.1008 37.1339 17.8664C36.8995 17.6319 36.5815 17.5002 36.25 17.5002ZM38.75 15.0002C38.5028 15.0002 38.2611 15.0735 38.0555 15.2109C37.85 15.3483 37.6898 15.5435 37.5952 15.7719C37.5005 16.0003 37.4758 16.2516 37.524 16.4941C37.5722 16.7366 37.6913 16.9593 37.8661 17.1341C38.0409 17.3089 38.2637 17.428 38.5061 17.4762C38.7486 17.5245 38.9999 17.4997 39.2284 17.4051C39.4568 17.3105 39.652 17.1503 39.7893 16.9447C39.9267 16.7391 40 16.4975 40 16.2502C40 15.9187 39.8683 15.6008 39.6339 15.3664C39.3995 15.1319 39.0815 15.0002 38.75 15.0002ZM33.75 20.0002C33.5028 20.0002 33.2611 20.0735 33.0555 20.2109C32.85 20.3483 32.6898 20.5435 32.5952 20.7719C32.5005 21.0003 32.4758 21.2516 32.524 21.4941C32.5722 21.7366 32.6913 21.9593 32.8661 22.1341C33.0409 22.3089 33.2637 22.428 33.5061 22.4762C33.7486 22.5245 33.9999 22.4997 34.2284 22.4051C34.4568 22.3105 34.652 22.1503 34.7893 21.9447C34.9267 21.7391 35 21.4975 35 21.2502C35 20.9187 34.8683 20.6008 34.6339 20.3664C34.3995 20.1319 34.0815 20.0002 33.75 20.0002ZM31.25 22.5002C31.0028 22.5002 30.7611 22.5735 30.5555 22.7109C30.35 22.8482 30.1898 23.0435 30.0952 23.2719C30.0005 23.5003 29.9758 23.7516 30.024 23.9941C30.0722 24.2366 30.1913 24.4593 30.3661 24.6341C30.5409 24.8089 30.7637 24.928 31.0061 24.9762C31.2486 25.0244 31.4999 24.9997 31.7284 24.9051C31.9568 24.8105 32.152 24.6503 32.2893 24.4447C32.4267 24.2391 32.5 23.9975 32.5 23.7502C32.5 23.4187 32.3683 23.1008 32.1339 22.8664C31.8995 22.6319 31.5815 22.5002 31.25 22.5002ZM26.25 27.5002C26.0028 27.5002 25.7611 27.5735 25.5555 27.7109C25.35 27.8482 25.1898 28.0435 25.0952 28.2719C25.0005 28.5003 24.9758 28.7516 25.024 28.9941C25.0722 29.2366 25.1913 29.4593 25.3661 29.6341C25.5409 29.8089 25.7637 29.928 26.0061 29.9762C26.2486 30.0244 26.4999 29.9997 26.7284 29.9051C26.9568 29.8105 27.152 29.6503 27.2893 29.4447C27.4267 29.2391 27.5 28.9975 27.5 28.7502C27.5 28.4187 27.3683 28.1008 27.1339 27.8664C26.8995 27.6319 26.5815 27.5002 26.25 27.5002ZM23.75 30.0002C23.5028 30.0002 23.2611 30.0735 23.0555 30.2109C22.85 30.3482 22.6898 30.5435 22.5952 30.7719C22.5005 31.0003 22.4758 31.2516 22.524 31.4941C22.5722 31.7366 22.6913 31.9593 22.8661 32.1341C23.0409 32.3089 23.2637 32.428 23.5061 32.4762C23.7486 32.5244 23.9999 32.4997 24.2284 32.4051C24.4568 32.3105 24.652 32.1503 24.7893 31.9447C24.9267 31.7391 25 31.4975 25 31.2502C25 30.9187 24.8683 30.6008 24.6339 30.3664C24.3995 30.1319 24.0815 30.0002 23.75 30.0002ZM28.75 25.0002C28.5028 25.0002 28.2611 25.0735 28.0555 25.2109C27.85 25.3482 27.6898 25.5435 27.5952 25.7719C27.5005 26.0003 27.4758 26.2516 27.524 26.4941C27.5722 26.7366 27.6913 26.9593 27.8661 27.1341C28.0409 27.3089 28.2637 27.428 28.5061 27.4762C28.7486 27.5244 28.9999 27.4997 29.2284 27.4051C29.4568 27.3105 29.652 27.1503 29.7893 26.9447C29.9267 26.7391 30 26.4975 30 26.2502C30 25.9187 29.8683 25.6008 29.6339 25.3664C29.3995 25.1319 29.0815 25.0002 28.75 25.0002ZM30.4414 7.94164L29.5586 7.05805C29.4425 6.94195 29.3047 6.84985 29.153 6.78701C29.0014 6.72417 28.8388 6.69183 28.6746 6.69183C28.5104 6.69183 28.3479 6.72417 28.1962 6.78701C28.0445 6.84985 27.9067 6.94195 27.7906 7.05805L27.3477 7.50024C25.7224 5.89832 23.532 5.00028 21.25 5.00024C19.7469 5.00024 18.3531 5.4143 17.1172 6.08227L16.3359 5.30102C14.563 3.51977 12.1569 2.51281 9.64375 2.50024C4.33516 2.46117 0 7.25883 0 12.5666V36.2502C0 36.5818 0.131696 36.8997 0.366117 37.1341C0.600537 37.3685 0.918479 37.5002 1.25 37.5002H3.75C4.08152 37.5002 4.39946 37.3685 4.63388 37.1341C4.8683 36.8997 5 36.5818 5 36.2502V12.3752C5 10.0198 6.64062 7.82836 8.98438 7.53696C9.67877 7.44598 10.3848 7.51614 11.0477 7.74199C11.7106 7.96783 12.3126 8.34331 12.807 8.8393L13.5883 9.62055C12.9141 10.8534 12.5 12.2471 12.5 13.7502C12.5004 16.0322 13.3984 18.2224 15 19.8479L14.5578 20.2909C14.3236 20.5253 14.192 20.8431 14.192 21.1745C14.192 21.5058 14.3236 21.8237 14.5578 22.058L15.4406 22.9416C15.5567 23.0577 15.6945 23.1498 15.8462 23.2127C15.9979 23.2755 16.1604 23.3079 16.3246 23.3079C16.4888 23.3079 16.6514 23.2755 16.803 23.2127C16.9547 23.1498 17.0925 23.0577 17.2086 22.9416L30.4414 9.70961C30.5575 9.59353 30.6496 9.45572 30.7124 9.30405C30.7753 9.15237 30.8076 8.9898 30.8076 8.82563C30.8076 8.66145 30.7753 8.49888 30.7124 8.34721C30.6496 8.19553 30.5575 8.05772 30.4414 7.94164V7.94164Z" fill="black"/>
</svg>
