<svg width="24" height="24" viewBox="0 0 24 24" fill="none" xmlns="http://www.w3.org/2000/svg">
<path d="M13.5 17.9999C12.6717 17.9999 12 18.6716 12 19.4999C12 20.3282 12.6717 20.9999 13.5 20.9999C14.3283 20.9999 15 20.3282 15 19.4999C15 18.6702 14.3297 17.9999 13.5 17.9999ZM19.5 11.9999C18.6717 11.9999 18 12.6716 18 13.4999C18 14.3282 18.6717 14.9999 19.5 14.9999C20.3283 14.9999 21 14.3282 21 13.4999C21 12.6702 20.3297 11.9999 19.5 11.9999ZM22.5 8.99989C21.6717 8.99989 21 9.67161 21 10.4999C21 11.3282 21.6717 11.9999 22.5 11.9999C23.3283 11.9999 24 11.3282 24 10.4999C24 9.6702 23.3297 8.99989 22.5 8.99989ZM13.5 14.9999C13.5 14.1716 12.8283 13.4999 12 13.4999C11.1717 13.4999 10.5 14.1716 10.5 14.9999C10.5 15.8282 11.1717 16.4999 12 16.4999C12.8283 16.4999 13.5 15.8296 13.5 14.9999ZM15 10.4999C14.1717 10.4999 13.5 11.1716 13.5 11.9999C13.5 12.8282 14.1717 13.4999 15 13.4999C15.8283 13.4999 16.5 12.8282 16.5 11.9999C16.5 11.1702 15.8297 10.4999 15 10.4999ZM18 10.4999C18.8283 10.4999 19.5 9.82817 19.5 8.99989C19.5 8.17161 18.8283 7.49989 18 7.49989C17.1717 7.49989 16.5 8.17161 16.5 8.99989C16.5 9.82958 17.1703 10.4999 18 10.4999ZM16.5 14.9999C15.6717 14.9999 15 15.6716 15 16.4999C15 17.3282 15.6717 17.9999 16.5 17.9999C17.3283 17.9999 18 17.3282 18 16.4999C18 15.6702 17.3297 14.9999 16.5 14.9999ZM16.2797 4.28004L15.7495 3.74989C15.4567 3.45701 14.9817 3.45701 14.6887 3.74989L14.3779 4.06072C12.7303 2.82837 10.5431 2.69384 8.77167 3.6492L7.99219 2.87098C6.19688 1.07567 2.98359 0.859107 1.03031 3.33551C0.329391 4.22379 0 5.3577 0 6.48739V21.7499C0 22.1624 0.335812 22.4999 0.75 22.4999H2.25C2.66438 22.4999 3 22.1624 3 21.7499V6.1827C3 5.25551 3.75422 4.50129 4.68187 4.50129C5.12428 4.50129 5.55797 4.68073 5.87156 4.99348L6.65016 5.77208C5.69531 7.54208 5.82656 9.73114 7.05938 11.3765L6.75 11.6905C6.45712 11.9834 6.45712 12.4583 6.75 12.7513L7.28016 13.2815C7.57303 13.5744 8.04797 13.5744 8.34094 13.2815L16.2816 5.34083C16.575 5.04833 16.575 4.57301 16.2797 4.28004V4.28004Z" fill="#A4A4A4"/>
</svg>
