<svg width="50" height="50" viewBox="0 0 50 50" fill="none" xmlns="http://www.w3.org/2000/svg">
<path d="M28.125 25C28.125 26.7285 26.7285 28.125 25 28.125C23.2715 28.125 21.875 26.7285 21.875 25V3.125C21.875 1.39941 23.2715 0 25 0C26.7285 0 28.125 1.39941 28.125 3.125V25ZM7.8125 25C7.8125 34.4922 15.5078 42.1875 25 42.1875C34.4922 42.1875 42.1875 34.4922 42.1875 25C42.1875 19.6875 39.7754 14.9316 35.9863 11.7773C34.6582 10.6738 34.4727 8.7041 35.5762 7.37695C36.6797 6.0498 38.6523 5.86914 39.9805 6.97266C45.1367 11.2695 48.4375 17.7539 48.4375 24.9121C48.4375 37.9395 37.9395 48.4375 25 48.4375C12.0605 48.4375 1.5625 37.9395 1.5625 24.9121C1.5625 17.7539 4.8584 11.2695 10.0195 6.97266C11.3477 5.86914 13.3203 6.0498 14.4238 7.37695C15.4395 8.7041 15.3418 10.6738 14.0137 11.7773C10.2246 14.9316 7.8125 19.6875 7.8125 25Z" fill="black"/>
</svg>
