<svg width="88" height="121" viewBox="0 0 88 121" fill="none" xmlns="http://www.w3.org/2000/svg">
<path d="M39.6415 120.533C17.642 121.068 6.45828 106.323 3.61639 98.8841L3.44922 98.5498L6.12394 98.8841C17.4262 100.085 69.3579 98.1057 81.0997 94.4541C76.4468 102.924 61.6411 119.998 39.6415 120.533Z" fill="#0C99C2"/>
<path d="M24.0124 89.3548H0.0234992V80.4948C-1.04639 52.7445 34.6834 21.7345 52.6821 9.69824C51.2611 25.663 38.5562 64.4465 24.0124 89.3548Z" fill="#0C99C2"/>
<path d="M33.791 89.6064C43.6541 78.5732 63.0458 20.0636 63.2965 0.671875C64.6339 1.54116 73.4382 18.8098 77.6732 27.3355C84.6274 43.0495 89.4587 62.5248 86.9511 82.2509C86.8933 82.719 86.5927 82.8917 86.4496 82.9196C75.4832 87.0654 46.7746 89.1049 33.791 89.6064Z" fill="#0C99C2"/>
</svg>
