<svg width="48" height="48" viewBox="0 0 48 48" fill="none" xmlns="http://www.w3.org/2000/svg">
<path fill-rule="evenodd" clip-rule="evenodd" d="M24 42C33.941 42 42 33.941 42 24C42 14.059 33.941 6 24 6C14.059 6 6 14.059 6 24C6 33.941 14.059 42 24 42ZM24 44C35.046 44 44 35.046 44 24C44 12.954 35.046 4 24 4C12.954 4 4 12.954 4 24C4 35.046 12.954 44 24 44Z" fill="#EB0000"/>
<path fill-rule="evenodd" clip-rule="evenodd" d="M16.2225 31.7781C16.035 31.5906 15.9297 31.3363 15.9297 31.0711C15.9297 30.806 16.035 30.5516 16.2225 30.3641L30.3645 16.2221C30.5531 16.04 30.8057 15.9392 31.0679 15.9414C31.3301 15.9437 31.5809 16.0489 31.7663 16.2343C31.9517 16.4197 32.0569 16.6705 32.0591 16.9327C32.0614 17.1949 31.9606 17.4475 31.7785 17.6361L17.6365 31.7781C17.4489 31.9656 17.1946 32.0709 16.9295 32.0709C16.6643 32.0709 16.41 31.9656 16.2225 31.7781V31.7781Z" fill="#EB0000"/>
<path fill-rule="evenodd" clip-rule="evenodd" d="M16.2225 16.2225C16.41 16.035 16.6643 15.9297 16.9295 15.9297C17.1946 15.9297 17.4489 16.035 17.6365 16.2225L31.7785 30.3645C31.9606 30.5531 32.0614 30.8057 32.0591 31.0679C32.0569 31.3301 31.9517 31.5809 31.7663 31.7663C31.5809 31.9517 31.3301 32.0569 31.0679 32.0591C30.8057 32.0614 30.5531 31.9606 30.3645 31.7785L16.2225 17.6365C16.035 17.4489 15.9297 17.1946 15.9297 16.9295C15.9297 16.6643 16.035 16.41 16.2225 16.2225V16.2225Z" fill="#EB0000"/>
</svg>
