<svg width="48" height="48" viewBox="0 0 48 48" fill="none" xmlns="http://www.w3.org/2000/svg">
<path fill-rule="evenodd" clip-rule="evenodd" d="M24 42C33.941 42 42 33.941 42 24C42 14.059 33.941 6 24 6C14.059 6 6 14.059 6 24C6 33.941 14.059 42 24 42ZM24 44C35.046 44 44 35.046 44 24C44 12.954 35.046 4 24 4C12.954 4 4 12.954 4 24C4 35.046 12.954 44 24 44Z" fill="#10B10D"/>
<path fill-rule="evenodd" clip-rule="evenodd" d="M34.6697 16.26C34.8664 16.4377 34.9845 16.6863 34.998 16.9511C35.0115 17.2158 34.9193 17.4751 34.7417 17.672L21.3857 32.433L13.3097 24.724C13.1283 24.5386 13.0261 24.2901 13.0244 24.0308C13.0228 23.7715 13.122 23.5218 13.301 23.3342C13.48 23.1466 13.7249 23.0359 13.984 23.0254C14.243 23.0149 14.4961 23.1055 14.6897 23.278L21.2797 29.568L33.2587 16.331C33.3468 16.2336 33.4533 16.1545 33.572 16.0982C33.6908 16.042 33.8194 16.0097 33.9507 16.0032C34.0819 15.9967 34.2131 16.0161 34.3368 16.0603C34.4605 16.1046 34.5743 16.1727 34.6717 16.261L34.6697 16.26Z" fill="#10B10D"/>
</svg>
