<svg width="18" height="18" viewBox="0 0 18 18" fill="none" xmlns="http://www.w3.org/2000/svg">
<path d="M15 7.5V5.25C15 4.425 14.325 3.75 13.5 3.75H4.5C3.675 3.75 3 4.425 3 5.25V7.5C2.175 7.5 1.5 8.175 1.5 9V12.75H2.4975L2.88 13.8975C2.955 14.1075 3.15 14.25 3.375 14.25C3.48387 14.2498 3.59 14.2158 3.67869 14.1526C3.76737 14.0895 3.83423 14.0003 3.87 13.8975L4.2525 12.75H13.755L14.1375 13.8975C14.205 14.1075 14.4 14.25 14.625 14.25C14.7339 14.2498 14.84 14.2158 14.9287 14.1526C15.0174 14.0895 15.0842 14.0003 15.12 13.8975L15.5025 12.75H16.5V9C16.5 8.175 15.825 7.5 15 7.5ZM8.25 7.5H4.5V6C4.5 5.5875 4.8375 5.25 5.25 5.25H8.25V7.5ZM13.5 7.5H9.75V5.25H12.75C13.1625 5.25 13.5 5.5875 13.5 6V7.5Z" fill="#838383"/>
</svg>
