<svg width="17" height="21" viewBox="0 0 17 21" fill="none" xmlns="http://www.w3.org/2000/svg">
<path d="M8.5274 12.2911C10.606 12.2911 12.2911 10.606 12.2911 8.5274C12.2911 6.44875 10.606 4.76367 8.5274 4.76367C6.44875 4.76367 4.76367 6.44875 4.76367 8.5274C4.76367 10.606 6.44875 12.2911 8.5274 12.2911Z" stroke="#8D8D91" stroke-width="1.5" stroke-linecap="round" stroke-linejoin="round"/>
<path d="M16.0549 8.52745C16.0549 15.1349 10.2571 18.8409 8.83775 19.6514C8.74312 19.7054 8.63602 19.7338 8.52704 19.7338C8.41805 19.7338 8.31095 19.7054 8.21632 19.6514C6.79698 18.8401 1 15.1332 1 8.52745C1 6.53105 1.79307 4.61641 3.20474 3.20474C4.61641 1.79307 6.53105 1 8.52745 1C10.5239 1 12.4385 1.79307 13.8502 3.20474C15.2618 4.61641 16.0549 6.53105 16.0549 8.52745Z" stroke="#8D8D91" stroke-width="1.5" stroke-linecap="round" stroke-linejoin="round"/>
</svg>
