<svg width="29" height="29" viewBox="0 0 29 29" fill="none" xmlns="http://www.w3.org/2000/svg">
<path d="M3.64307 26.6439V7.75012C3.64286 7.60185 3.68288 7.4563 3.75888 7.329C3.83488 7.20169 3.944 7.09739 4.07461 7.02722L13.1108 2.16412C13.2358 2.09672 13.3761 2.06287 13.518 2.06586C13.66 2.06884 13.7987 2.10857 13.9207 2.18117C14.0427 2.25376 14.1439 2.35674 14.2142 2.48006C14.2846 2.60339 14.3218 2.74284 14.3222 2.88482V26.6439" stroke="#222223" stroke-width="1.5" stroke-linecap="round" stroke-linejoin="round"/>
<path d="M25.0011 26.644V15.5082C25.0011 15.383 24.9724 15.2596 24.9174 15.1472C24.8623 15.0348 24.7823 14.9365 24.6835 14.8598L18.9332 10.3877C18.8119 10.293 18.6665 10.2343 18.5134 10.2183C18.3604 10.2023 18.206 10.2297 18.0677 10.2973C17.9295 10.365 17.8131 10.4701 17.7318 10.6007C17.6505 10.7313 17.6076 10.8822 17.6079 11.0361V26.644" stroke="#222223" stroke-width="1.5" stroke-linecap="round" stroke-linejoin="round"/>
<path d="M26.6441 26.644H2" stroke="#222223" stroke-width="1.5" stroke-linecap="round" stroke-linejoin="round"/>
<path d="M14.3219 10.2146H9.39307" stroke="#222223" stroke-width="1.5" stroke-linecap="round" stroke-linejoin="round"/>
<path d="M14.3223 13.5007H7.75049" stroke="#222223" stroke-width="1.5" stroke-linecap="round" stroke-linejoin="round"/>
<path d="M7.75049 26.6442H11.0364V23.3583C11.0364 22.9225 10.8633 22.5047 10.5552 22.1965C10.2471 21.8884 9.82916 21.7153 9.39343 21.7153C8.95769 21.7153 8.53981 21.8884 8.23169 22.1965C7.92358 22.5047 7.75049 22.9225 7.75049 23.3583V26.6442Z" stroke="#222223" stroke-width="1.5" stroke-linecap="round" stroke-linejoin="round"/>
<path d="M6.10742 5.93211V2" stroke="#222223" stroke-width="1.5" stroke-linecap="round" stroke-linejoin="round"/>
<path d="M17.6079 15.9651H20.0723" stroke="#222223" stroke-width="1.5" stroke-linecap="round" stroke-linejoin="round"/>
<path d="M17.6079 19.2507H21.7153" stroke="#222223" stroke-width="1.5" stroke-linecap="round" stroke-linejoin="round"/>
<path d="M23.3584 13.8291V10.2146" stroke="#222223" stroke-width="1.5" stroke-linecap="round" stroke-linejoin="round"/>
</svg>
