<svg width="29" height="29" viewBox="0 0 29 29" fill="none" xmlns="http://www.w3.org/2000/svg">
<path d="M14.329 12.3299C17.4577 12.3299 19.994 9.79365 19.994 6.66497C19.994 3.53629 17.4577 1 14.329 1C11.2004 1 8.66406 3.53629 8.66406 6.66497C8.66406 9.79365 11.2004 12.3299 14.329 12.3299Z" stroke="#222223" stroke-width="1.5" stroke-linecap="round" stroke-linejoin="round"/>
<path d="M5.35012 27.4364C4.05219 27.4364 2.97551 26.3731 3.24284 25.103C3.69216 22.9683 4.75241 20.991 6.31846 19.4249C8.44324 17.3001 11.3251 16.1064 14.3299 16.1064C17.3348 16.1064 20.2166 17.3001 22.3414 19.4249C23.9075 20.991 24.9677 22.9683 25.417 25.103C25.6844 26.3731 24.6077 27.4364 23.3098 27.4364H5.35012Z" stroke="#222223" stroke-width="1.5" stroke-linecap="round" stroke-linejoin="round"/>
</svg>
