<svg width="24" height="24" viewBox="0 0 24 24" fill="none" xmlns="http://www.w3.org/2000/svg">
<path d="M17.5654 17.5654L22.7539 22.7539" stroke="#000" stroke-width="2.2" stroke-linecap="round" stroke-linejoin="round"/>
<path d="M2 10.8945C2 12.0625 2.23006 13.2191 2.67705 14.2983C3.12404 15.3774 3.77921 16.3579 4.60514 17.1839C5.43107 18.0098 6.41159 18.665 7.49072 19.1119C8.56985 19.5589 9.72646 19.789 10.8945 19.789C12.0625 19.789 13.2191 19.5589 14.2983 19.1119C15.3774 18.665 16.3579 18.0098 17.1839 17.1839C18.0098 16.3579 18.665 15.3774 19.1119 14.2983C19.5589 13.2191 19.789 12.0625 19.789 10.8945C19.789 8.53553 18.8519 6.27318 17.1839 4.60514C15.5158 2.9371 13.2535 2 10.8945 2C8.53553 2 6.27318 2.9371 4.60514 4.60514C2.9371 6.27318 2 8.53553 2 10.8945V10.8945Z" stroke="#000" stroke-width="2.2" stroke-linecap="round" stroke-linejoin="round"/>
</svg>
