<svg width="94" height="94" viewBox="0 0 94 94" fill="none" xmlns="http://www.w3.org/2000/svg">
<g clip-path="url(#clip0_1139_42358)">
<g filter="url(#filter0_dd_1139_42358)">
<path fill-rule="evenodd" clip-rule="evenodd" d="M79.1495 4.59404C78.226 5.59634 77.0668 6.35206 75.7771 6.79255C75.2024 6.98506 74.6073 7.1103 74.0038 7.16576V2.76421C74.5561 2.63841 75.0964 2.46511 75.6188 2.24625C76.5764 1.84525 77.4661 1.29817 78.2561 0.624512L79.1495 4.59404ZM45.5259 4.95148L42.7416 5.21611L44.646 7.26534L44.0398 9.99312L46.5754 8.81471L48.9842 10.2351L48.6472 7.45986L50.7417 5.60741L47.9981 5.07136L46.883 2.50643L45.5259 4.95148ZM53.1741 75.8953L53.8771 75.5527L53.8859 75.5496C54.2163 75.4332 54.5312 75.2793 54.8248 75.0914L55.1561 74.9304L55.1148 74.8894C55.2256 74.8057 55.3327 74.7167 55.4358 74.6228C56.2556 73.8029 56.633 72.6205 56.61 71.1647C62.8603 73.5793 68.3317 77.7384 72.342 83.1974C72.6318 81.904 72.9216 80.6211 73.2105 79.3421L73.5407 77.8798C70.0128 73.5269 65.4943 70.0815 60.3628 67.8315C58.746 67.1226 57.0831 66.5388 55.3887 66.0828C53.7869 62.1534 50.6718 57.4443 46.4079 52.7277C46.9499 52.4748 47.4936 52.2257 48.0335 51.9784C52.6196 49.8772 56.9351 47.9 57.6833 44.7914L58.8143 40.0913C58.8007 40.1402 58.7857 40.1884 58.7695 40.2362L58.808 40.0753C59.8961 35.5415 57.6207 32.2091 55.4879 29.0856L55.4879 29.0856C54.2536 27.2779 53.0671 25.5402 52.6079 23.6801C54.722 22.0141 58.7812 23.2528 62.6388 24.4299C66.9988 25.7604 71.1014 27.0123 71.8476 23.9034L72.9755 19.2161C72.2254 22.3083 68.1298 21.0592 63.7757 19.7313C58.9022 18.245 53.705 16.6599 52.5134 20.9538C52.5331 20.848 52.5557 20.7417 52.5812 20.6347L51.4503 25.3326C50.2979 29.7431 52.5322 33.0119 54.6666 36.1344C55.9366 37.9923 57.1711 39.7983 57.636 41.7624C55.8858 43.1869 52.5513 44.0038 48.9635 44.8828L48.7541 44.9341L49.2734 43.2083C48.4933 43.0768 47.7441 42.8023 47.0636 42.3986C45.8601 41.6627 44.9197 40.5656 44.3766 39.2637C43.5382 40.6826 42.6998 42.1 41.8614 43.5159C42.2627 44.5747 42.9166 45.5189 43.7659 46.2666C42.7988 46.5665 41.8608 46.8954 40.9794 47.267C38.2821 44.8393 35.3587 42.6743 32.2488 40.8019C34.3083 38.4343 36.0188 36.1874 35.3526 33.9347L34.2277 30.9792L34.2234 30.9558C34.1277 30.6066 34.0006 30.2802 33.8452 29.9744L33.6471 29.454C33.6753 29.5497 33.6992 29.6455 33.719 29.7412C32.1011 26.9281 27.9917 25.946 24.1265 25.0223C21.9786 24.5089 19.9061 24.0136 18.3784 23.2321C19.608 20.9181 22.6921 18.9363 25.6288 17.0493C29.2958 14.693 32.7329 12.4844 32.0417 9.96127L29.5718 3.05586C30.2629 5.57773 26.9835 8.31423 23.4844 11.2341C19.8446 14.2714 15.967 17.507 16.0731 20.906C16.053 20.8468 16.0346 20.7866 16.0179 20.7255L16.0819 21.0783C16.1018 21.3591 16.1494 21.6411 16.2269 21.9241L16.2429 21.965L16.8751 25.4482C17.5662 27.9699 21.1529 28.8261 24.9798 29.7395C27.9736 30.4542 31.1144 31.2038 33.131 32.8135C32.3946 34.2207 31.1352 35.6497 29.8304 37.1302C29.3625 37.6611 28.8888 38.1987 28.4312 38.7442C24.1676 36.8552 20.9235 36.7402 19.2372 38.4265C19.0724 38.5912 18.9255 38.7705 18.7961 38.9637L18.7812 38.949L18.6775 39.153C18.599 39.2871 18.5282 39.4272 18.4649 39.5731C16.7838 42.9045 15.0895 46.4775 13.4251 50.2808C12.2874 52.9091 11.152 55.6369 10.0482 58.4936C9.62592 59.5474 9.22602 60.6235 8.82186 61.7112L8.82179 61.7114L8.82158 61.7119L8.82032 61.7153C8.72707 61.9663 8.63358 62.2178 8.53954 62.4699C7.7592 64.6141 6.96303 66.8036 6.21662 69.0111C5.2757 71.748 4.36644 74.4984 3.57253 77.1764L3.55444 77.1922C2.57732 80.3203 1.73365 83.2607 1.06641 85.9749C0.918838 87.032 1.01799 88.1089 1.3561 89.1213C1.6942 90.1337 2.26209 91.054 3.01527 91.8103C3.76846 92.5665 4.68649 93.1381 5.69748 93.4803C6.70846 93.8226 7.78495 93.9261 8.84262 93.7828C11.7654 93.0539 14.6367 92.132 17.4376 91.0234C18.6856 90.5458 19.9458 90.0425 21.2369 89.5269L21.2372 89.5268L21.2377 89.5266L21.2387 89.5262C22.4906 89.0263 23.7715 88.5148 25.0985 88.0038C26.6569 87.3863 28.2786 86.7711 29.9841 86.1695C31.7867 85.5361 33.6279 84.8395 35.4374 84.0592C38.1109 82.9712 40.7911 81.786 43.3538 80.585C46.8479 78.979 50.1797 77.3549 53.1739 75.8954L53.1741 75.8953ZM6.47987 31.1167L9.65684 30.2399L10.7314 27.1248L12.5503 29.8731L15.8438 29.9338L13.7923 32.5121L14.7513 35.6637L11.6652 34.5083L8.96398 36.3946L9.10926 33.1051L6.47987 31.1167ZM69.6679 64.0992L67.0283 63.1764L67.8991 65.8318L66.205 68.0575L69.0029 68.0484L70.593 70.3464L71.4502 67.6843L74.1282 66.8813L71.8619 65.2437L71.9229 62.4481L69.6679 64.0992ZM78.1809 34.6351L83.3188 36.4314L87.7082 33.2174L87.5893 38.6591L92.0008 41.8466L86.7881 43.4096L85.1195 48.5915L82.0244 44.1184L76.5783 44.136L79.8759 39.8038L78.1809 34.6351ZM40.5019 33.2639C41.356 32.9339 42.1224 32.411 42.7411 31.736L42.0127 28.7255C40.7538 29.5001 39.2944 29.8863 37.817 29.836V33.6382C38.7289 33.722 39.6477 33.5939 40.5019 33.2639ZM8.6456 8.8824C7.97866 8.25705 7.46508 7.48617 7.14488 6.62982L8.94304 4.09882C9.50508 4.86426 10.2046 5.5185 11.0058 6.02817C11.4492 6.30262 11.9199 6.53003 12.4104 6.70672L10.99 10.2352C10.1148 9.97071 9.31254 9.50776 8.6456 8.8824ZM68.777 58.1814C67.854 59.1867 66.6949 59.9462 65.4046 60.3912C64.8299 60.5835 64.2348 60.7087 63.6313 60.7644V56.3515C65.2002 55.9924 66.6585 55.2582 67.8814 54.2118L68.777 58.1814ZM79.738 27.7371C81.1028 29.0615 82.8067 29.9835 84.662 30.4016L85.4061 26.9749C84.5103 26.7669 83.6678 26.3742 82.9324 25.822C82.1971 25.2697 81.5852 24.57 81.1358 23.7676L79.738 27.7371Z" fill="#FF0000" fill-opacity="0.01" shape-rendering="crispEdges"/>
</g>
<path d="M55.1561 74.9305C51.6819 76.6178 47.64 78.615 43.3538 80.5851C40.7911 81.7861 38.1109 82.9713 35.4374 84.0593C33.6279 84.8396 31.7867 85.5362 29.9841 86.1696C28.2786 86.7712 26.6569 87.3864 25.0985 88.0039C22.4024 89.0421 19.8962 90.0826 17.4376 91.0235C14.6367 92.1321 11.7654 93.054 8.84262 93.7829C7.78495 93.9262 6.70846 93.8227 5.69748 93.4805C4.68649 93.1382 3.76846 92.5666 3.01527 91.8104C2.26209 91.0541 1.6942 90.1338 1.3561 89.1214C1.01799 88.109 0.918838 87.0321 1.06641 85.975C1.73365 83.2608 2.57732 80.3204 3.55444 77.1923L3.57253 77.1765C4.36644 74.4985 5.2757 71.7481 6.21662 69.0112C6.96303 66.8037 7.7592 64.6142 8.53954 62.47C9.04166 61.1242 9.52796 59.792 10.0482 58.4937C11.152 55.637 12.2874 52.9092 13.4251 50.2809C15.1939 46.239 16.9966 42.4572 18.7812 38.9491C30.9107 50.9369 43.0356 62.9307 55.1561 74.9305Z" fill="#F85757"/>
<path d="M55.0335 74.2238C58.4024 70.8549 53.2088 60.1992 43.4333 50.4237C33.6578 40.6481 23.0021 35.4546 19.6332 38.8235C16.2643 42.1924 21.4578 52.8481 31.2334 62.6236C41.0089 72.3991 51.6646 77.5927 55.0335 74.2238Z" fill="#CE3737"/>
<path d="M52.097 75.7989C47.0961 75.7989 38.7634 70.9541 30.8357 63.0241C20.6868 52.8752 15.5909 42.0704 19.237 38.4265C21.0464 36.6171 24.6495 36.8817 29.3813 39.1865C34.7454 42.0079 39.6252 45.6668 43.8367 50.0253C53.9834 60.1741 59.0793 70.979 55.4355 74.6228C54.9861 75.0324 54.4591 75.3476 53.8856 75.5497C53.3121 75.7517 52.7039 75.8365 52.097 75.7989V75.7989ZM22.589 38.3655C22.1273 38.3326 21.6637 38.3916 21.2249 38.5391C20.7862 38.6867 20.3811 38.9198 20.0331 39.225C17.2805 41.9776 21.2862 51.8754 31.6318 62.2256C41.9775 72.5758 51.8799 76.5793 54.6325 73.8244C57.3852 71.0694 53.3795 61.1716 43.0338 50.8237C38.9108 46.5552 34.1342 42.9705 28.8837 40.2043C26.9423 39.1454 24.7951 38.5181 22.589 38.3655V38.3655Z" fill="#FF8080"/>
<path d="M42.7422 5.21615L45.5265 4.95152L46.8836 2.50647L47.9987 5.0714L50.7423 5.60745L48.6479 7.4599L48.9849 10.2352L46.576 8.81475L44.0405 9.99317L44.6467 7.26538L42.7422 5.21615Z" fill="#FFC01F"/>
<path d="M6.48024 31.1168L9.65721 30.24L10.7318 27.1249L12.5506 29.8732L15.8442 29.9339L13.7927 32.5122L14.7517 35.6638L11.6656 34.5084L8.96435 36.3947L9.10963 33.1052L6.48024 31.1168Z" fill="#FFC01F"/>
<path d="M67.0284 63.1763L69.668 64.0991L71.923 62.448L71.8619 65.2436L74.1283 66.8812L71.4503 67.6842L70.593 70.3464L69.003 68.0483L66.2051 68.0574L67.8992 65.8317L67.0284 63.1763Z" fill="#FFC01F"/>
<path d="M78.1807 34.6351L83.3186 36.4313L87.708 33.2174L87.5891 38.6591L92.0006 41.8466L86.7879 43.4095L85.1193 48.5914L82.0242 44.1184L76.5781 44.136L79.8757 39.8038L78.1807 34.6351Z" fill="#FFC01F"/>
<path d="M51.333 25.8441C53.38 17.3147 70.2556 30.5374 71.8479 23.9034L72.9788 19.2033C71.3955 25.8373 54.5132 12.6168 52.4639 21.1462L51.333 25.8441Z" fill="#FFAA5B"/>
<path d="M57.6799 44.7846C59.1523 37.9086 49.2771 33.6518 51.4507 25.3327L52.5817 20.6349C50.9984 27.2689 60.8555 31.546 58.8085 40.0754L57.6799 44.7846Z" fill="#FFAA5B"/>
<path d="M36.1956 61.4363C38.2426 52.9069 56.0862 51.4254 57.6831 44.7914L58.814 40.0913C57.2081 45.8522 37.1003 44.0314 35.0488 53.0155L36.1956 61.4363Z" fill="#FFAA5B"/>
<path d="M44.0442 64.9466C41.5537 65.2185 39.1079 65.806 36.7656 66.695L36.786 66.7108C37.6658 67.369 38.2223 67.7988 38.4914 68.0046C38.8601 68.2851 39.3961 68.6832 40.0973 69.1491C42.5733 68.8352 45.0763 68.7935 47.5614 69.0247C48.8886 69.1581 50.2082 69.3589 51.5151 69.6263C59.8729 71.4759 67.2743 76.2987 72.3421 83.1974C72.7425 81.4105 73.1428 79.644 73.5409 77.8798C70.013 73.5269 65.4945 70.0815 60.363 67.8315C55.2315 65.5815 49.6361 64.5923 44.0442 64.9466V64.9466Z" fill="#FFAA5B"/>
<path d="M17.9756 26.4026C16.0395 19.3321 33.5235 15.3694 32.042 9.96131L29.5721 3.05591C31.0536 8.46171 14.2911 14.8537 16.2272 21.9242L17.9756 26.4026Z" fill="#FFAA5B"/>
<path d="M35.0804 35.6761C33.1442 28.6056 18.3563 30.8539 16.8748 25.4481L16.0176 20.7253C17.4968 26.1334 32.287 23.8919 34.2231 30.9557L35.0804 35.6761Z" fill="#FFAA5B"/>
<path d="M27.0745 51.6855C24.9959 44.6534 36.9429 39.311 35.3529 33.9346L33.6474 29.4539C35.2307 34.8303 23.2882 40.175 25.3668 47.2048L27.0745 51.6855Z" fill="#FFAA5B"/>
<path d="M47.8462 47.9513C46.3646 47.8456 44.9548 47.2722 43.8201 46.3137C42.9444 45.5587 42.2711 44.597 41.8613 43.5158C42.6997 42.0999 43.5381 40.6825 44.3765 39.2635C44.9197 40.5654 45.8601 41.6626 47.0636 42.3985C47.744 42.8022 48.4932 43.0767 49.2734 43.2082L47.8462 47.9513Z" fill="#B7B7B7"/>
<path d="M42.7414 31.7361C42.1227 32.4111 41.3564 32.9341 40.5022 33.264C39.6481 33.594 38.7292 33.7221 37.8174 33.6383V29.8361C39.2947 29.8865 40.7541 29.5002 42.0131 28.7256L42.7414 31.7361Z" fill="#B7B7B7"/>
<path d="M79.1496 4.59404C78.2261 5.59634 77.0669 6.35206 75.7772 6.79255C75.2025 6.98506 74.6074 7.1103 74.0039 7.16576V2.76421C74.5561 2.63841 75.0965 2.46511 75.6189 2.24625C76.5765 1.84525 77.4662 1.29817 78.2562 0.624512L79.1496 4.59404Z" fill="#B7B7B7"/>
<path d="M7.14453 6.62976C7.46474 7.48611 7.97831 8.25699 8.64525 8.88234C9.31219 9.5077 10.1145 9.97064 10.9897 10.2351L12.4101 6.70666C11.9196 6.52997 11.4488 6.30255 11.0055 6.02811C10.2042 5.51844 9.50473 4.8642 8.9427 4.09875L7.14453 6.62976Z" fill="#E9E9E9"/>
<path d="M68.7766 58.1813C67.8535 59.1867 66.6944 59.9462 65.4041 60.3911C64.8294 60.5834 64.2344 60.7087 63.6309 60.7644V56.3515C65.1997 55.9924 66.658 55.2582 67.8809 54.2118L68.7766 58.1813Z" fill="#B7B7B7"/>
<path d="M84.6623 30.4014C82.807 29.9834 81.1031 29.0614 79.7383 27.737L81.1361 23.7675C81.5855 24.5698 82.1974 25.2695 82.9328 25.8218C83.6681 26.3741 84.5106 26.7668 85.4065 26.9747L84.6623 30.4014Z" fill="#B7B7B7"/>
</g>
<defs>
<filter id="filter0_dd_1139_42358" x="-14.6629" y="-15.0384" width="122.327" height="128.682" filterUnits="userSpaceOnUse" color-interpolation-filters="sRGB">
<feFlood flood-opacity="0" result="BackgroundImageFix"/>
<feColorMatrix in="SourceAlpha" type="matrix" values="0 0 0 0 0 0 0 0 0 0 0 0 0 0 0 0 0 0 127 0" result="hardAlpha"/>
<feOffset dy="4.39953"/>
<feGaussianBlur stdDeviation="7.69917"/>
<feComposite in2="hardAlpha" operator="out"/>
<feColorMatrix type="matrix" values="0 0 0 0 0.132391 0 0 0 0 0.13228 0 0 0 0 0.137836 0 0 0 0.05 0"/>
<feBlend mode="normal" in2="BackgroundImageFix" result="effect1_dropShadow_1139_42358"/>
<feColorMatrix in="SourceAlpha" type="matrix" values="0 0 0 0 0 0 0 0 0 0 0 0 0 0 0 0 0 0 127 0" result="hardAlpha"/>
<feOffset/>
<feGaussianBlur stdDeviation="7.83145"/>
<feComposite in2="hardAlpha" operator="out"/>
<feColorMatrix type="matrix" values="0 0 0 0 0 0 0 0 0 0 0 0 0 0 0 0 0 0 0.09 0"/>
<feBlend mode="normal" in2="effect1_dropShadow_1139_42358" result="effect2_dropShadow_1139_42358"/>
<feBlend mode="normal" in="SourceGraphic" in2="effect2_dropShadow_1139_42358" result="shape"/>
</filter>
<clipPath id="clip0_1139_42358">
<rect width="94" height="94" fill="white"/>
</clipPath>
</defs>
</svg>
