<svg width="41" height="41" viewBox="0 0 41 41" fill="none" xmlns="http://www.w3.org/2000/svg">
<g clip-path="url(#clip0_1597_27376)">
<path d="M38.2668 16.3991V31.4324C38.2668 31.7949 38.1228 32.1425 37.8665 32.3988C37.6102 32.6551 37.2626 32.7991 36.9001 32.7991C36.5377 32.7991 36.19 32.6551 35.9338 32.3988C35.6775 32.1425 35.5335 31.7949 35.5335 31.4324V25.9658C35.5335 24.8784 35.1015 23.8355 34.3326 23.0666C33.5637 22.2977 32.5209 21.8658 31.4335 21.8658H27.3335V5.46576C27.3335 4.74083 27.0455 4.0456 26.5329 3.533C26.0203 3.0204 25.3251 2.73242 24.6001 2.73242H8.20013C7.47521 2.73242 6.77997 3.0204 6.26737 3.533C5.75477 4.0456 5.4668 4.74083 5.4668 5.46576V35.5324C5.4668 36.2573 5.75477 36.9526 6.26737 37.4652C6.77997 37.9778 7.47521 38.2658 8.20013 38.2658H24.6001C25.3251 38.2658 26.0203 37.9778 26.5329 37.4652C27.0455 36.9526 27.3335 36.2573 27.3335 35.5324V24.5991H31.4335C31.7959 24.5991 32.1435 24.7431 32.3998 24.9994C32.6561 25.2557 32.8001 25.6033 32.8001 25.9658V31.4324C32.8001 32.5198 33.2321 33.5627 34.001 34.3316C34.7699 35.1005 35.8127 35.5324 36.9001 35.5324C37.9875 35.5324 39.0304 35.1005 39.7993 34.3316C40.5682 33.5627 41.0001 32.5198 41.0001 31.4324V13.6658C41.0001 12.9408 40.7122 12.2456 40.1996 11.733C39.687 11.2204 38.9917 10.9324 38.2668 10.9324V6.80509C38.2596 6.44738 38.1125 6.10675 37.857 5.85633C37.6014 5.60591 37.2579 5.46568 36.9001 5.46576C36.7098 5.4689 36.5221 5.51099 36.3487 5.58943C36.1753 5.66788 36.0197 5.78101 35.8917 5.92186C35.7636 6.06271 35.6658 6.22829 35.6042 6.4084C35.5426 6.58851 35.5185 6.77932 35.5335 6.96909V13.6658C35.5335 14.2064 35.6938 14.7348 35.9941 15.1843C36.2945 15.6338 36.7213 15.9841 37.2208 16.191C37.7202 16.3979 38.2698 16.452 38.8 16.3466C39.3303 16.2411 39.8173 15.9808 40.1996 15.5985C40.5818 15.2162 40.8421 14.7292 40.9476 14.199C41.0531 13.6688 40.9989 13.1192 40.7921 12.6198C40.5852 12.1203 40.2349 11.6934 39.7854 11.3931C39.3359 11.0927 38.8074 10.9324 38.2668 10.9324V16.3991ZM24.6001 17.7658C24.6001 18.1282 24.4561 18.4758 24.1998 18.7321C23.9435 18.9884 23.5959 19.1324 23.2335 19.1324H9.5668C9.20433 19.1324 8.85672 18.9884 8.60042 18.7321C8.34412 18.4758 8.20013 18.1282 8.20013 17.7658V9.56576C8.20013 9.20329 8.34412 8.85568 8.60042 8.59938C8.85672 8.34308 9.20433 8.19909 9.5668 8.19909H23.2335C23.5959 8.19909 23.9435 8.34308 24.1998 8.59938C24.4561 8.85568 24.6001 9.20329 24.6001 9.56576V17.7658Z" fill="black"/>
</g>
<defs>
<clipPath id="clip0_1597_27376">
<rect width="41" height="41" fill="white"/>
</clipPath>
</defs>
</svg>
