<svg width="17" height="17" viewBox="0 0 17 17" fill="none" xmlns="http://www.w3.org/2000/svg">
<path d="M11.334 10.2721C11.334 11.0513 11.1215 12.7513 9.77565 14.7346L9.20898 11.3346L9.84648 9.9888C9.42148 9.9888 8.99648 9.91797 8.50065 9.91797C8.00482 9.91797 7.57982 9.9888 7.15482 9.9888L7.79232 11.3346L7.22565 14.7346C5.87982 12.8221 5.66732 11.0513 5.66732 10.2721C3.96732 10.768 2.83398 11.6888 2.83398 12.7513V15.5846H14.1673V12.7513C14.1673 11.6888 13.034 10.768 11.334 10.2721ZM4.25065 3.1888C4.25065 2.19714 6.16315 1.41797 8.50065 1.41797C10.8382 1.41797 12.7507 2.19714 12.7507 3.1888C12.7507 3.47214 12.609 3.68464 12.3965 3.89714C11.759 3.25964 10.2715 2.83464 8.50065 2.83464C6.72982 2.83464 5.24232 3.25964 4.60482 3.89714C4.39232 3.68464 4.25065 3.47214 4.25065 3.1888ZM11.2632 5.24297C11.334 5.38464 11.334 5.5263 11.334 5.66797C11.334 7.2263 10.059 8.5013 8.50065 8.5013C6.94232 8.5013 5.66732 7.2263 5.66732 5.66797C5.66732 5.5263 5.66732 5.38464 5.73815 5.24297C6.44648 5.5263 7.43815 5.66797 8.50065 5.66797C9.56315 5.66797 10.5548 5.5263 11.2632 5.24297ZM11.759 4.32214C10.9798 4.6763 9.84648 4.95964 8.50065 4.95964C7.15482 4.95964 6.02148 4.6763 5.24232 4.32214C5.73815 3.89714 6.94232 3.54297 8.50065 3.54297C10.059 3.54297 11.2632 3.89714 11.759 4.32214Z" fill="#7B7B7B"/>
</svg>
