<svg width="27" height="27" viewBox="0 0 27 27" fill="none" xmlns="http://www.w3.org/2000/svg">
<path d="M22.5 22.8747V24.7501H20.25V23.2504L11.9047 24.6409C11.8242 24.6543 11.7417 24.65 11.663 24.6283C11.5843 24.6066 11.5112 24.568 11.4489 24.5153C11.3866 24.4625 11.3366 24.3968 11.3022 24.3227C11.2679 24.2486 11.25 24.168 11.25 24.0863V22.5001H6.75V24.7501H4.5V22.5001H3.375C3.07663 22.5001 2.79048 22.3815 2.5795 22.1705C2.36853 21.9596 2.25 21.6734 2.25 21.3751V4.50005C2.25 4.20168 2.36853 3.91554 2.5795 3.70456C2.79048 3.49358 3.07663 3.37505 3.375 3.37505H11.25V1.7888C11.25 1.70715 11.2679 1.62649 11.3022 1.55241C11.3366 1.47834 11.3866 1.41263 11.4489 1.35985C11.5112 1.30708 11.5843 1.2685 11.663 1.2468C11.7417 1.22509 11.8242 1.22079 11.9047 1.23418L23.8095 3.21868C24.0722 3.26235 24.3109 3.39779 24.4831 3.6009C24.6553 3.80402 24.7499 4.06163 24.75 4.32793V6.75005H25.875V9.00005H24.75V16.8751H25.875V19.1251H24.75V21.5472C24.7499 21.8135 24.6553 22.0711 24.4831 22.2742C24.3109 22.4773 24.0722 22.6128 23.8095 22.6564L22.5 22.8747ZM4.5 5.62505V20.2501H11.25V5.62505H4.5ZM13.5 22.0951L22.5 20.5943V5.2808L13.5 3.78118V22.0939V22.0951ZM18.5625 15.7501C17.631 15.7501 16.875 14.4901 16.875 12.9376C16.875 11.3851 17.631 10.1251 18.5625 10.1251C19.494 10.1251 20.25 11.3851 20.25 12.9376C20.25 14.4901 19.494 15.7501 18.5625 15.7501Z" fill="#485068"/>
</svg>
