<svg width="27" height="27" viewBox="0 0 27 27" fill="none" xmlns="http://www.w3.org/2000/svg">
<path d="M10.6875 11.8126H13.5C13.7984 11.8126 14.0845 11.6941 14.2955 11.4831C14.5065 11.2721 14.625 10.9859 14.625 10.6876C14.625 10.3892 14.5065 10.1031 14.2955 9.89208C14.0845 9.6811 13.7984 9.56258 13.5 9.56258H12.375V9.00008C12.375 8.70171 12.2565 8.41556 12.0455 8.20458C11.8345 7.9936 11.5484 7.87508 11.25 7.87508C10.9516 7.87508 10.6655 7.9936 10.4545 8.20458C10.2435 8.41556 10.125 8.70171 10.125 9.00008V9.61883C9.44149 9.75762 8.83392 10.1454 8.42025 10.707C8.00658 11.2686 7.81633 11.9638 7.88642 12.6577C7.95652 13.3517 8.28196 13.9948 8.79957 14.4623C9.31718 14.9298 9.99004 15.1883 10.6875 15.1876H11.8125C11.9617 15.1876 12.1048 15.2468 12.2103 15.3523C12.3157 15.4578 12.375 15.6009 12.375 15.7501C12.375 15.8993 12.3157 16.0423 12.2103 16.1478C12.1048 16.2533 11.9617 16.3126 11.8125 16.3126H9.00001C8.70164 16.3126 8.41549 16.4311 8.20451 16.6421C7.99354 16.8531 7.87501 17.1392 7.87501 17.4376C7.87501 17.7359 7.99354 18.0221 8.20451 18.2331C8.41549 18.4441 8.70164 18.5626 9.00001 18.5626H10.125V19.1251C10.125 19.4234 10.2435 19.7096 10.4545 19.9206C10.6655 20.1316 10.9516 20.2501 11.25 20.2501C11.5484 20.2501 11.8345 20.1316 12.0455 19.9206C12.2565 19.7096 12.375 19.4234 12.375 19.1251V18.5063C13.0585 18.3675 13.6661 17.9797 14.0798 17.4182C14.4934 16.8566 14.6837 16.1614 14.6136 15.4674C14.5435 14.7735 14.2181 14.1303 13.7004 13.6628C13.1828 13.1954 12.51 12.9369 11.8125 12.9376H10.6875C10.5383 12.9376 10.3953 12.8783 10.2898 12.7728C10.1843 12.6673 10.125 12.5243 10.125 12.3751C10.125 12.2259 10.1843 12.0828 10.2898 11.9773C10.3953 11.8718 10.5383 11.8126 10.6875 11.8126ZM23.625 13.5001H20.25V3.37508C20.2508 3.17684 20.1992 2.98192 20.1004 2.81004C20.0016 2.63817 19.8592 2.49544 19.6875 2.39633C19.5165 2.29759 19.3225 2.24561 19.125 2.24561C18.9275 2.24561 18.7335 2.29759 18.5625 2.39633L15.1875 4.33133L11.8125 2.39633C11.6415 2.29759 11.4475 2.24561 11.25 2.24561C11.0525 2.24561 10.8585 2.29759 10.6875 2.39633L7.31251 4.33133L3.93751 2.39633C3.76649 2.29759 3.57249 2.24561 3.37501 2.24561C3.17753 2.24561 2.98353 2.29759 2.81251 2.39633C2.64083 2.49544 2.49839 2.63817 2.39961 2.81004C2.30083 2.98192 2.24922 3.17684 2.25001 3.37508V21.3751C2.25001 22.2702 2.60559 23.1286 3.23852 23.7616C3.87146 24.3945 4.7299 24.7501 5.62501 24.7501H21.375C22.2701 24.7501 23.1286 24.3945 23.7615 23.7616C24.3944 23.1286 24.75 22.2702 24.75 21.3751V14.6251C24.75 14.3267 24.6315 14.0406 24.4205 13.8296C24.2095 13.6186 23.9234 13.5001 23.625 13.5001ZM5.62501 22.5001C5.32664 22.5001 5.04049 22.3816 4.82951 22.1706C4.61854 21.9596 4.50001 21.6734 4.50001 21.3751V5.32133L6.75001 6.60383C6.92364 6.69452 7.11662 6.74188 7.31251 6.74188C7.5084 6.74188 7.70138 6.69452 7.87501 6.60383L11.25 4.66883L14.625 6.60383C14.7986 6.69452 14.9916 6.74188 15.1875 6.74188C15.3834 6.74188 15.5764 6.69452 15.75 6.60383L18 5.32133V21.3751C18.0031 21.7589 18.0715 22.1393 18.2025 22.5001H5.62501ZM22.5 21.3751C22.5 21.6734 22.3815 21.9596 22.1705 22.1706C21.9595 22.3816 21.6734 22.5001 21.375 22.5001C21.0766 22.5001 20.7905 22.3816 20.5795 22.1706C20.3685 21.9596 20.25 21.6734 20.25 21.3751V15.7501H22.5V21.3751Z" fill="#485068"/>
</svg>
